<?xml version="1.0" encoding="UTF-8" standalone="no"?>
<!DOCTYPE svg PUBLIC "-//W3C//DTD SVG 1.1//EN"
 "http://www.w3.org/Graphics/SVG/1.1/DTD/svg11.dtd">
<!-- Generated by graphviz version 2.42.4 (0)
 -->
<!-- Title: G Pages: 1 -->
<svg width="1779pt" height="220pt"
 viewBox="0.00 0.00 1779.00 220.00" xmlns="http://www.w3.org/2000/svg" xmlns:xlink="http://www.w3.org/1999/xlink">
<g id="graph0" class="graph" transform="scale(1 1) rotate(0) translate(18 202)">
<title>G</title>
<polygon fill="white" stroke="transparent" points="-18,18 -18,-202 1761,-202 1761,18 -18,18"/>
<text text-anchor="middle" x="871.5" y="-164" font-family="Arial" font-size="20.00">LangChain Interview Flow</text>
<!-- q -->
<g id="node1" class="node">
<title>q</title>
<path fill="#e8f0fe" stroke="#b8c5d8" d="M117,-76C117,-76 12,-76 12,-76 6,-76 0,-70 0,-64 0,-64 0,-52 0,-52 0,-46 6,-40 12,-40 12,-40 117,-40 117,-40 123,-40 129,-46 129,-52 129,-52 129,-64 129,-64 129,-70 123,-76 117,-76"/>
<text text-anchor="middle" x="64.5" y="-54.9" font-family="Arial" font-size="12.00">Customer Question</text>
</g>
<!-- prompt -->
<g id="node2" class="node">
<title>prompt</title>
<path fill="#f8fbff" stroke="#b8c5d8" d="M343,-76C343,-76 196,-76 196,-76 190,-76 184,-70 184,-64 184,-64 184,-52 184,-52 184,-46 190,-40 196,-40 196,-40 343,-40 343,-40 349,-40 355,-46 355,-52 355,-52 355,-64 355,-64 355,-70 349,-76 343,-76"/>
<text text-anchor="middle" x="269.5" y="-54.9" font-family="Arial" font-size="12.00">Prompt + Structured Output</text>
</g>
<!-- q&#45;&gt;prompt -->
<g id="edge1" class="edge">
<title>q&#45;&gt;prompt</title>
<path fill="none" stroke="#60748f" stroke-width="1.5" d="M129.17,-58C143.93,-58 159.92,-58 175.64,-58"/>
<polygon fill="#60748f" stroke="#60748f" stroke-width="1.5" points="175.83,-60.8 183.83,-58 175.83,-55.2 175.83,-60.8"/>
</g>
<!-- memory -->
<g id="node3" class="node">
<title>memory</title>
<path fill="#f8fbff" stroke="#b8c5d8" d="M669,-112C669,-112 549,-112 549,-112 543,-112 537,-106 537,-100 537,-100 537,-88 537,-88 537,-82 543,-76 549,-76 549,-76 669,-76 669,-76 675,-76 681,-82 681,-88 681,-88 681,-100 681,-100 681,-106 675,-112 669,-112"/>
<text text-anchor="middle" x="609" y="-90.9" font-family="Arial" font-size="12.00">Conversation Memory</text>
</g>
<!-- prompt&#45;&gt;memory -->
<g id="edge2" class="edge">
<title>prompt&#45;&gt;memory</title>
<path fill="none" stroke="#60748f" stroke-width="1.5" d="M355.23,-67.04C408.42,-72.71 476.57,-79.98 528.7,-85.54"/>
<polygon fill="#60748f" stroke="#60748f" stroke-width="1.5" points="528.67,-88.35 536.93,-86.42 529.27,-82.79 528.67,-88.35"/>
<text text-anchor="middle" x="425.5" y="-81" font-family="Arial" font-size="10.00">follow&#45;up context</text>
</g>
<!-- rag -->
<g id="node4" class="node">
<title>rag</title>
<path fill="#e9f7ef" stroke="#b8c5d8" d="M710,-44C710,-44 508,-44 508,-44 502,-44 496,-38 496,-32 496,-32 496,-12 496,-12 496,-6 502,0 508,0 508,0 710,0 710,0 716,0 722,-6 722,-12 722,-12 722,-32 722,-32 722,-38 716,-44 710,-44"/>
<text text-anchor="middle" x="609" y="-25.4" font-family="Arial" font-size="12.00">RAG Retrieval</text>
<text text-anchor="middle" x="609" y="-12.4" font-family="Arial" font-size="12.00">Chunks + Embeddings + Vector Store</text>
</g>
<!-- prompt&#45;&gt;rag -->
<g id="edge3" class="edge">
<title>prompt&#45;&gt;rag</title>
<path fill="none" stroke="#60748f" stroke-width="1.5" d="M355.23,-48.96C395.3,-44.69 443.86,-39.51 487.67,-34.84"/>
<polygon fill="#60748f" stroke="#60748f" stroke-width="1.5" points="488.13,-37.6 495.79,-33.97 487.54,-32.03 488.13,-37.6"/>
<text text-anchor="middle" x="425.5" y="-48" font-family="Arial" font-size="10.00">knowledge question</text>
</g>
<!-- model -->
<g id="node5" class="node">
<title>model</title>
<path fill="#fff4df" stroke="#b8c5d8" d="M852,-75C852,-75 789,-75 789,-75 783,-75 777,-69 777,-63 777,-63 777,-51 777,-51 777,-45 783,-39 789,-39 789,-39 852,-39 852,-39 858,-39 864,-45 864,-51 864,-51 864,-63 864,-63 864,-69 858,-75 852,-75"/>
<text text-anchor="middle" x="820.5" y="-53.9" font-family="Arial" font-size="12.00">gpt&#45;4o&#45;mini</text>
</g>
<!-- memory&#45;&gt;model -->
<g id="edge4" class="edge">
<title>memory&#45;&gt;model</title>
<path fill="none" stroke="#60748f" stroke-width="1.5" d="M681.22,-81.42C710.03,-76.33 742.62,-70.58 768.93,-65.93"/>
<polygon fill="#60748f" stroke="#60748f" stroke-width="1.5" points="769.49,-68.68 776.88,-64.53 768.51,-63.16 769.49,-68.68"/>
</g>
<!-- rag&#45;&gt;model -->
<g id="edge5" class="edge">
<title>rag&#45;&gt;model</title>
<path fill="none" stroke="#60748f" stroke-width="1.5" d="M722.11,-40.73C738.37,-43.45 754.4,-46.12 768.61,-48.5"/>
<polygon fill="#60748f" stroke="#60748f" stroke-width="1.5" points="768.41,-51.3 776.76,-49.86 769.33,-45.78 768.41,-51.3"/>
</g>
<!-- agent -->
<g id="node6" class="node">
<title>agent</title>
<path fill="#fce8e6" stroke="#b8c5d8" d="M1155,-134C1155,-134 1018,-134 1018,-134 1012,-134 1006,-128 1006,-122 1006,-122 1006,-102 1006,-102 1006,-96 1012,-90 1018,-90 1018,-90 1155,-90 1155,-90 1161,-90 1167,-96 1167,-102 1167,-102 1167,-122 1167,-122 1167,-128 1161,-134 1155,-134"/>
<text text-anchor="middle" x="1086.5" y="-115.4" font-family="Arial" font-size="12.00">LLM Agent</text>
<text text-anchor="middle" x="1086.5" y="-102.4" font-family="Arial" font-size="12.00">Select Tools Dynamically</text>
</g>
<!-- model&#45;&gt;agent -->
<g id="edge6" class="edge">
<title>model&#45;&gt;agent</title>
<path fill="none" stroke="#60748f" stroke-width="1.5" d="M864.21,-65.9C900.21,-73.4 952.89,-84.37 997.82,-93.73"/>
<polygon fill="#60748f" stroke="#60748f" stroke-width="1.5" points="997.42,-96.51 1005.82,-95.4 998.56,-91.03 997.42,-96.51"/>
<text text-anchor="middle" x="935" y="-92" font-family="Arial" font-size="10.00">when action needed</text>
</g>
<!-- answer -->
<g id="node9" class="node">
<title>answer</title>
<path fill="#e8f5e9" stroke="#b8c5d8" d="M1467,-74C1467,-74 1310,-74 1310,-74 1304,-74 1298,-68 1298,-62 1298,-62 1298,-50 1298,-50 1298,-44 1304,-38 1310,-38 1310,-38 1467,-38 1467,-38 1473,-38 1479,-44 1479,-50 1479,-50 1479,-62 1479,-62 1479,-68 1473,-74 1467,-74"/>
<text text-anchor="middle" x="1388.5" y="-52.9" font-family="Arial" font-size="12.00">Grounded Structured Answer</text>
</g>
<!-- model&#45;&gt;answer -->
<g id="edge9" class="edge">
<title>model&#45;&gt;answer</title>
<path fill="none" stroke="#60748f" stroke-width="1.5" d="M864.04,-56.92C953.85,-56.77 1164.79,-56.39 1289.75,-56.17"/>
<polygon fill="#60748f" stroke="#60748f" stroke-width="1.5" points="1289.86,-58.97 1297.86,-56.16 1289.85,-53.37 1289.86,-58.97"/>
</g>
<!-- tools -->
<g id="node7" class="node">
<title>tools</title>
<path fill="#f8fbff" stroke="#b8c5d8" d="M1493,-154C1493,-154 1284,-154 1284,-154 1278,-154 1272,-148 1272,-142 1272,-142 1272,-130 1272,-130 1272,-124 1278,-118 1284,-118 1284,-118 1493,-118 1493,-118 1499,-118 1505,-124 1505,-130 1505,-130 1505,-142 1505,-142 1505,-148 1499,-154 1493,-154"/>
<text text-anchor="middle" x="1388.5" y="-132.9" font-family="Arial" font-size="12.00">Policy Search | Calculator | Status Tool</text>
</g>
<!-- agent&#45;&gt;tools -->
<g id="edge7" class="edge">
<title>agent&#45;&gt;tools</title>
<path fill="none" stroke="#60748f" stroke-width="1.5" d="M1167.17,-131.08C1176.18,-132.68 1185.26,-134.04 1194,-135 1216.48,-137.46 1240.52,-138.69 1263.74,-139.18"/>
<polygon fill="#60748f" stroke="#60748f" stroke-width="1.5" points="1263.86,-141.98 1271.91,-139.32 1263.96,-136.38 1263.86,-141.98"/>
</g>
<!-- agent&#45;&gt;answer -->
<g id="edge10" class="edge">
<title>agent&#45;&gt;answer</title>
<path fill="none" stroke="#60748f" stroke-width="1.5" d="M1167.11,-97.14C1204.86,-90.09 1250.31,-81.61 1290.11,-74.18"/>
<polygon fill="#60748f" stroke="#60748f" stroke-width="1.5" points="1290.63,-76.93 1297.99,-72.71 1289.61,-71.43 1290.63,-76.93"/>
</g>
<!-- tools&#45;&gt;agent -->
<g id="edge8" class="edge">
<title>tools&#45;&gt;agent</title>
<path fill="none" stroke="#60748f" stroke-width="1.5" d="M1271.65,-124.28C1262.64,-123.47 1253.67,-122.7 1245,-122 1222.5,-120.18 1198.17,-118.5 1175.52,-117.05"/>
<polygon fill="#60748f" stroke="#60748f" stroke-width="1.5" points="1175.42,-114.24 1167.26,-116.53 1175.07,-119.83 1175.42,-114.24"/>
<text text-anchor="middle" x="1219.5" y="-125" font-family="Arial" font-size="10.00">observation</text>
</g>
<!-- eval -->
<g id="node8" class="node">
<title>eval</title>
<path fill="#f3e8ff" stroke="#b8c5d8" d="M1731,-78C1731,-78 1572,-78 1572,-78 1566,-78 1560,-72 1560,-66 1560,-66 1560,-46 1560,-46 1560,-40 1566,-34 1572,-34 1572,-34 1731,-34 1731,-34 1737,-34 1743,-40 1743,-46 1743,-46 1743,-66 1743,-66 1743,-72 1737,-78 1731,-78"/>
<text text-anchor="middle" x="1651.5" y="-59.4" font-family="Arial" font-size="12.00">Evaluation</text>
<text text-anchor="middle" x="1651.5" y="-46.4" font-family="Arial" font-size="12.00">Retrieval + Answer + Latency</text>
</g>
<!-- answer&#45;&gt;eval -->
<g id="edge11" class="edge">
<title>answer&#45;&gt;eval</title>
<path fill="none" stroke="#60748f" stroke-width="1.5" d="M1479.32,-56C1502.54,-56 1527.66,-56 1551.32,-56"/>
<polygon fill="#60748f" stroke="#60748f" stroke-width="1.5" points="1551.63,-58.8 1559.63,-56 1551.63,-53.2 1551.63,-58.8"/>
</g>
</g>
</svg>
